<svg xmlns="http://www.w3.org/2000/svg" viewBox="0 0 512 512">
  <rect width="512" height="512" rx="112" fill="#08111f"/>
  <circle cx="256" cy="256" r="164" fill="#eef6ff"/>
  <path d="M256 96l66 48-25 78h-82l-25-78 66-48z" fill="#102136"/>
  <path d="M154 191l61 31 25 78-66 48-67-50 47-107zM358 191l47 107-67 50-66-48 25-78 61-31z" fill="#102136"/>
  <path d="M190 401l66-48 66 48-24 49a165 165 0 0 1-84 0l-24-49z" fill="#102136"/>
  <path d="M79 256a177 177 0 0 0 19 80l76 12-67-50 47-107-72-16a177 177 0 0 0-3 81zM433 256a177 177 0 0 1-19 80l-76 12 67-50-47-107 72-16a177 177 0 0 1 3 81z" fill="#102136"/>
  <circle cx="256" cy="256" r="56" fill="#53d1a7"/>
</svg>
